<?xml version="1.0" encoding="UTF-8"?>
<svg xmlns="http://www.w3.org/2000/svg" xmlns:xlink="http://www.w3.org/1999/xlink" width="30px" height="30px" viewBox="0 0 30 30" version="1.1">
<g id="surface1">
<path style=" stroke:none;fill-rule:nonzero;fill:rgb(0%,0%,0%);fill-opacity:1;" d="M 14.492188 22.339844 L 16.390625 22.339844 C 16.15625 22.117188 15.941406 21.886719 15.742188 21.644531 C 15.660156 21.535156 15.582031 21.417969 15.503906 21.308594 C 15.476562 21.265625 15.441406 21.226562 15.417969 21.1875 C 15.316406 21.03125 15.226562 20.878906 15.140625 20.71875 L 12.949219 21.1875 L 12.949219 7.8125 L 17.3125 6.878906 L 22.414062 5.792969 L 22.414062 11.371094 C 22.585938 11.414062 22.757812 11.464844 22.929688 11.523438 C 23.101562 11.582031 23.273438 11.648438 23.441406 11.726562 C 23.574219 11.785156 23.703125 11.84375 23.832031 11.910156 C 24.191406 12.097656 24.535156 12.328125 24.863281 12.589844 L 24.863281 6.878906 L 23.441406 6.878906 L 23.441406 4.515625 L 12.429688 6.867188 L 1.421875 4.515625 L 1.421875 6.878906 L 0 6.878906 L 0 22.335938 L 10.367188 22.335938 L 10.367188 23.882812 L 8.308594 23.882812 L 8.308594 24.914062 L 16.550781 24.914062 L 16.550781 23.882812 L 14.492188 23.882812 Z M 2.453125 6.878906 L 2.453125 5.792969 L 7.554688 6.878906 L 11.914062 7.8125 L 11.914062 21.1875 L 2.453125 19.164062 Z M 14.195312 10.15625 L 20.980469 7.917969 L 21.304688 8.894531 L 14.515625 11.136719 Z M 10.347656 11.136719 L 3.5625 8.894531 L 3.882812 7.917969 L 10.671875 10.15625 Z M 10.347656 13.898438 L 3.5625 11.65625 L 3.882812 10.679688 L 10.671875 12.921875 Z M 3.890625 13.441406 L 10.671875 15.683594 L 10.351562 16.660156 L 3.566406 14.417969 Z M 3.890625 16.203125 L 10.671875 18.445312 L 10.351562 19.421875 L 3.566406 17.179688 Z M 26.246094 21.148438 L 26.167969 21.085938 L 26.003906 21.28125 L 25.371094 20.75 C 26.101562 19.691406 26.457031 18.429688 26.339844 17.132812 C 26.230469 15.890625 25.699219 14.769531 24.863281 13.875 C 24.703125 13.703125 24.550781 13.527344 24.371094 13.378906 C 24.199219 13.234375 24.011719 13.121094 23.832031 13.003906 C 23.703125 12.917969 23.578125 12.835938 23.441406 12.765625 C 23.273438 12.675781 23.101562 12.597656 22.925781 12.527344 C 22.757812 12.457031 22.585938 12.398438 22.410156 12.34375 C 21.898438 12.191406 21.367188 12.09375 20.828125 12.09375 C 19.175781 12.09375 17.625 12.820312 16.566406 14.089844 C 15.621094 15.226562 15.171875 16.664062 15.300781 18.136719 C 15.382812 18.996094 15.671875 19.796875 16.109375 20.511719 C 16.203125 20.667969 16.300781 20.824219 16.410156 20.972656 C 16.5 21.089844 16.601562 21.199219 16.695312 21.308594 C 16.730469 21.34375 16.765625 21.378906 16.804688 21.414062 C 16.957031 21.578125 17.097656 21.746094 17.273438 21.890625 C 17.472656 22.058594 17.691406 22.203125 17.914062 22.339844 C 18.785156 22.875 19.785156 23.175781 20.8125 23.175781 C 21.863281 23.175781 22.875 22.878906 23.742188 22.339844 C 24.09375 22.117188 24.421875 21.855469 24.722656 21.558594 L 24.859375 21.675781 L 25.339844 22.074219 L 25.175781 22.273438 L 25.253906 22.335938 L 28.910156 25.382812 L 29.898438 24.195312 Z M 23.832031 20.957031 C 23.695312 21.082031 23.558594 21.203125 23.410156 21.308594 C 22.65625 21.839844 21.757812 22.144531 20.816406 22.144531 C 19.886719 22.144531 18.988281 21.839844 18.234375 21.308594 C 18.164062 21.257812 18.085938 21.210938 18.015625 21.15625 C 17.992188 21.136719 17.960938 21.121094 17.933594 21.097656 C 17.796875 20.988281 17.6875 20.855469 17.566406 20.726562 C 17.429688 20.582031 17.304688 20.4375 17.1875 20.277344 C 16.710938 19.628906 16.40625 18.867188 16.332031 18.042969 C 16.226562 16.84375 16.589844 15.671875 17.359375 14.746094 C 18.21875 13.714844 19.484375 13.125 20.828125 13.125 C 21.371094 13.125 21.910156 13.230469 22.414062 13.417969 C 22.589844 13.484375 22.761719 13.570312 22.929688 13.660156 C 23.109375 13.753906 23.277344 13.867188 23.441406 13.984375 C 23.53125 14.046875 23.628906 14.101562 23.710938 14.171875 C 23.757812 14.207031 23.789062 14.253906 23.832031 14.292969 C 24.265625 14.683594 24.613281 15.136719 24.863281 15.644531 C 25.101562 16.136719 25.261719 16.664062 25.3125 17.226562 C 25.390625 18.058594 25.222656 18.875 24.863281 19.605469 C 24.703125 19.925781 24.519531 20.238281 24.285156 20.523438 C 24.148438 20.683594 23.988281 20.816406 23.832031 20.957031 Z M 23.832031 20.957031 "/>
</g>
</svg>
