<?xml version="1.0" encoding="iso-8859-1"?>
<!-- Uploaded to: SVG Repo, www.svgrepo.com, Generator: SVG Repo Mixer Tools -->
<svg fill="#000000" height="800px" width="800px" version="1.1" id="Layer_1" xmlns="http://www.w3.org/2000/svg" xmlns:xlink="http://www.w3.org/1999/xlink" 
	 viewBox="0 0 512 512" xml:space="preserve">
<g>
	<g>
		<path d="M167.141,131.229c-5.424,1.593-9.902,2.337-14.098,2.337c-27.619,0-50.087-22.468-50.087-50.087
			c0-20.788,12.631-39.081,32.174-46.603c14.564-5.604,14.125-26.493-0.734-31.429C123.353,1.783,113.071,0,102.957,0
			C47.723,0,2.783,44.94,2.783,100.174c0,55.234,44.94,100.174,100.174,100.174c33.044,0,63.945-16.326,82.674-43.668
			C194.445,143.806,182.243,126.828,167.141,131.229z"/>
	</g>
</g>
<g>
	<g>
		<path d="M492.522,144.696h-16.696V128c0-9.223-7.473-16.696-16.696-16.696c-9.223,0-16.696,7.473-16.696,16.696v16.696h-16.696
			c-9.223,0-16.696,7.473-16.696,16.696c0,9.223,7.473,16.696,16.696,16.696h16.696v16.696c0,9.223,7.473,16.696,16.696,16.696
			c9.223,0,16.696-7.473,16.696-16.696v-16.696h16.696c9.223,0,16.696-7.473,16.696-16.696
			C509.217,152.169,501.744,144.696,492.522,144.696z"/>
	</g>
</g>
<g>
	<g>
		<path d="M392.348,33.391h-16.696V16.696C375.652,7.473,368.179,0,358.957,0c-9.223,0-16.696,7.473-16.696,16.696v16.696h-16.696
			c-9.223,0-16.696,7.473-16.696,16.696s7.473,16.696,16.696,16.696h16.696v16.696c0,9.223,7.473,16.696,16.696,16.696
			c9.223,0,16.696-7.473,16.696-16.696V66.783h16.696c9.223,0,16.696-7.473,16.696-16.696S401.57,33.391,392.348,33.391z"/>
	</g>
</g>
<g>
	<g>
		<path d="M492.522,378.435c-9.223,0-16.696,7.473-16.696,16.696v47.205L272.462,151.815c-6.542-9.229-20.474-9.711-27.359,0
			L41.739,442.336V395.13c0-9.223-7.473-16.696-16.696-16.696c-9.223,0-16.696,7.473-16.696,16.696v100.174
			c0,9.366,7.721,16.696,16.696,16.696c46.81,0,420.628,0,467.478,0c8.894,0,16.696-7.337,16.696-16.696V395.13
			C509.217,385.908,501.744,378.435,492.522,378.435z M275.478,478.609V372.237c50.601,96.367,35.347,67.316,55.854,106.371H275.478
			z"/>
	</g>
</g>
</svg>